HIERARCHY
ROOT hip
{
  OFFSET 0 0 0
  CHANNELS 6 Xposition Yposition Zposition Zrotation Yrotation Xrotation
  JOINT abdomen
  {
    OFFSET 0 20.6881 -0.73152
    CHANNELS 3 Zrotation Xrotation Yrotation
    JOINT chest
    {
      OFFSET 0 11.7043 -0.48768
      CHANNELS 3 Zrotation Xrotation Yrotation
      JOINT neck
      {
        OFFSET 0 22.1894 -2.19456
        CHANNELS 3 Zrotation Xrotation Yrotation
        JOINT head
        {
          OFFSET -0.24384 7.07133 1.2192
          CHANNELS 3 Zrotation Xrotation Yrotation
          JOINT leftEye
          {
            OFFSET 4.14528 8.04674 8.04672
            CHANNELS 3 Zrotation Xrotation Yrotation
            End Site
            {
              OFFSET 1 0 0
            }
          }
          JOINT rightEye
          {
            OFFSET -3.6576 8.04674 8.04672
            CHANNELS 3 Zrotation Xrotation Yrotation
            End Site
            {
              OFFSET 1 0 0
            }
          }
        }
      }
      JOINT rCollar
      {
        OFFSET -2.68224 19.2634 -4.8768
        CHANNELS 3 Zrotation Xrotation Yrotation
        JOINT rShldr
        {
          OFFSET -8.77824 -1.95073 1.46304
          CHANNELS 3 Zrotation Xrotation Yrotation
          JOINT rForeArm
          {
            OFFSET -28.1742 -1.7115 0.48768
            CHANNELS 3 Zrotation Xrotation Yrotation
            JOINT rHand
            {
              OFFSET -22.5879 0.773209 7.07136
              CHANNELS 3 Zrotation Xrotation Yrotation
              JOINT rThumb1
              {
                OFFSET -1.2192 -0.487915 3.41376
                CHANNELS 3 Zrotation Xrotation Yrotation
                JOINT rThumb2
                {
                  OFFSET -3.37035 -0.52449 3.41376
                  CHANNELS 3 Zrotation Xrotation Yrotation
                  End Site
                  {
                    OFFSET -1.78271 -1.18214 1.43049
                  }
                }
              }
              JOINT rIndex1
              {
                OFFSET -7.75947 0.938293 5.60832
                CHANNELS 3 Zrotation Xrotation Yrotation
                JOINT rIndex2
                {
                  OFFSET -2.54057 -0.884171 1.56538
                  CHANNELS 3 Zrotation Xrotation Yrotation
                  End Site
                  {
                    OFFSET -1.62519 -0.234802 1.16502
                  }
                }
              }
              JOINT rMid1
              {
                OFFSET -8.24714 1.18213 3.41376
                CHANNELS 3 Zrotation Xrotation Yrotation
                JOINT rMid2
                {
                  OFFSET -3.10165 -0.590103 1.0647
                  CHANNELS 3 Zrotation Xrotation Yrotation
                  End Site
                  {
                    OFFSET -2.48547 -0.328903 0.83742
                  }
                }
              }
              JOINT rRing1
              {
                OFFSET -8.82822 0.546677 1.51678
                CHANNELS 3 Zrotation Xrotation Yrotation
                JOINT rRing2
                {
                  OFFSET -2.60934 -0.819778 -0.0198488
                  CHANNELS 3 Zrotation Xrotation Yrotation
                  End Site
                  {
                    OFFSET -2.33842 -0.294052 0.168128
                  }
                }
              }
              JOINT rPinky1
              {
                OFFSET -8.27202 -0.0477905 -0.4584
                CHANNELS 3 Zrotation Xrotation Yrotation
                JOINT rPinky2
                {
                  OFFSET -1.82734 -0.647385 -0.700984
                  CHANNELS 3 Zrotation Xrotation Yrotation
                  End Site
                  {
                    OFFSET -1.69225 -0.51767 -0.607171
                  }
                }
              }
            }
          }
        }
      }
      JOINT lCollar
      {
        OFFSET 2.68224 19.2634 -4.8768
        CHANNELS 3 Zrotation Xrotation Yrotation
        JOINT lShldr
        {
          OFFSET 8.77824 -1.95073 1.46304
          CHANNELS 3 Zrotation Xrotation Yrotation
          JOINT lForeArm
          {
            OFFSET 28.1742 -1.7115 0.48768
            CHANNELS 3 Zrotation Xrotation Yrotation
            JOINT lHand
            {
              OFFSET 22.5879 0.773209 7.07136
              CHANNELS 3 Zrotation Xrotation Yrotation
              JOINT lThumb1
              {
                OFFSET 1.2192 -0.487915 3.41376
                CHANNELS 3 Zrotation Xrotation Yrotation
                JOINT lThumb2
                {
                  OFFSET 3.37035 -0.52449 3.41376
                  CHANNELS 3 Zrotation Xrotation Yrotation
                  End Site
                  {
                    OFFSET 1.78271 -1.18214 1.43049
                  }
                }
              }
              JOINT lIndex1
              {
                OFFSET 7.75947 0.938293 5.60832
                CHANNELS 3 Zrotation Xrotation Yrotation
                JOINT lIndex2
                {
                  OFFSET 2.54057 -0.884171 1.56538
                  CHANNELS 3 Zrotation Xrotation Yrotation
                  End Site
                  {
                    OFFSET 1.62519 -0.234802 1.16502
                  }
                }
              }
              JOINT lMid1
              {
                OFFSET 8.24714 1.18213 3.41376
                CHANNELS 3 Zrotation Xrotation Yrotation
                JOINT lMid2
                {
                  OFFSET 3.10165 -0.590103 1.0647
                  CHANNELS 3 Zrotation Xrotation Yrotation
                  End Site
                  {
                    OFFSET 2.48547 -0.328903 0.83742
                  }
                }
              }
              JOINT lRing1
              {
                OFFSET 8.82822 0.546677 1.51678
                CHANNELS 3 Zrotation Xrotation Yrotation
                JOINT lRing2
                {
                  OFFSET 2.60934 -0.819778 -0.0198488
                  CHANNELS 3 Zrotation Xrotation Yrotation
                  End Site
                  {
                    OFFSET 2.33842 -0.294052 0.168128
                  }
                }
              }
              JOINT lPinky1
              {
                OFFSET 8.27202 -0.0477905 -0.4584
                CHANNELS 3 Zrotation Xrotation Yrotation
                JOINT lPinky2
                {
                  OFFSET 1.82734 -0.647385 -0.700984
                  CHANNELS 3 Zrotation Xrotation Yrotation
                  End Site
                  {
                    OFFSET 1.69225 -0.51767 -0.607171
                  }
                }
              }
            }
          }
        }
      }
    }
  }
  JOINT rButtock
  {
    OFFSET -8.77824 4.35084 1.2192
    CHANNELS 3 Zrotation Xrotation Yrotation
    JOINT rThigh
    {
      OFFSET 0 -1.70687 -2.19456
      CHANNELS 3 Zrotation Xrotation Yrotation
      JOINT rShin
      {
        OFFSET 0 -36.8199 0.73152
        CHANNELS 3 Zrotation Xrotation Yrotation
        JOINT rFoot
        {
          OFFSET 0.73152 -45.1104 -5.12064
          CHANNELS 3 Zrotation Xrotation Yrotation
          End Site
          {
            OFFSET -1.1221 -3.69964 12.103
          }
        }
      }
    }
  }
  JOINT lButtock
  {
    OFFSET 8.77824 4.35084 1.2192
    CHANNELS 3 Zrotation Xrotation Yrotation
    JOINT lThigh
    {
      OFFSET 0 -1.70687 -2.19456
      CHANNELS 3 Zrotation Xrotation Yrotation
      JOINT lShin
      {
        OFFSET 0 -36.8199 0.73152
        CHANNELS 3 Zrotation Xrotation Yrotation
        JOINT lFoot
        {
          OFFSET -0.73152 -45.1104 -5.12064
          CHANNELS 3 Zrotation Xrotation Yrotation
          End Site
          {
            OFFSET 1.1221 -3.69964 12.103
          }
        }
      }
    }
  }
}
MOTION
Frames:	6
Frame Time:	0.03333
18.168985965894535 70.74679732322693 -13.14600004152453 -0.9633913040161133 4.266591548919678 6.002305030822754 -4.635245323181152 5.38239860534668 3.137766122817993 2.2553508281707764 -6.529383659362793 0.8764016032218933 -6.065670967102051 10.505398750305176 -4.091638565063477 7.344083309173584 -20.661895751953125 -6.157215118408203 -0.0 0.0 -0.0 -0.0 0.0 -0.0 -0.0 -0.0 -0.0 73.11009216308594 40.04340362548828 -0.7764836549758911 -17.28989028930664 -9.943120956420898 32.445892333984375 -0.00014343648217618465 -0.33919695019721985 -0.048457272350788116 0.0 0.0 0.0 0.0 0.0 0.0 0.0 0.0 0.0 7.730902194976807 5.47491455078125 0.4173222780227661 0.0 0.0 0.0 2.905566453933716 0.9650754332542419 0.10300818830728531 0.0 0.0 0.0 10.278596878051758 0.7318810820579529 0.026273518800735474 0.0 0.0 0.0 2.221662998199463 -0.7334509491920471 -0.20832103490829468 -0.0 -0.0 -0.0 -74.54780578613281 39.09220886230469 -8.993121147155762 12.846607208251953 -6.060434341430664 -23.260807037353516 1.085788607597351 28.376550674438477 -4.349841594696045 -0.0 0.0 -0.0 -0.0 0.0 -0.0 -0.0 0.0 -0.0 -7.730902194976807 5.47491455078125 -0.4173222780227661 -0.0 0.0 -0.0 -2.905566453933716 0.9650754332542419 -0.10300818830728531 -0.0 0.0 -0.0 -10.278596878051758 0.7318810820579529 -0.026273518800735474 -0.0 0.0 -0.0 -2.221662998199463 -0.7334509491920471 0.20832103490829468 -0.0 0.0 -0.0 -8.333471298217773 -25.48379135131836 5.924108028411865 -0.24955743551254272 37.501609802246094 1.0171386003494263 -2.478029727935791 -9.029461860656738 -13.152595520019531 0.0 0.0 0.0 7.506401538848877 -20.517606735229492 -4.0230231285095215 0.11922457069158554 34.3098030090332 -0.9352076649665833 1.771405577659607 -8.974928855895996 13.738907814025879
18.384307954693213 70.78499794006348 -13.16800004169636 -1.0554054975509644 4.1546950340271 6.037291526794434 -4.667953014373779 5.28314208984375 3.241454601287842 2.2768609523773193 -6.511507987976074 0.9081482887268066 -6.059901714324951 10.459280014038086 -4.055906295776367 7.4362897872924805 -20.422101974487305 -6.079141616821289 -0.0 0.0 -0.0 -0.0 0.0 -0.0 -0.0 0.0 -0.0 73.01239013671875 40.410301208496094 -0.45309504866600037 -17.416805267333984 -10.073187828063965 32.72439956665039 -0.00021697855845559388 -0.418947696685791 -0.0593482181429863 0.0 0.0 -0.0 0.0 0.0 -0.0 0.0 0.0 -0.0 7.730902194976807 5.47491455078125 0.4173222780227661 0.0 0.0 -0.0 2.905566453933716 0.9650754332542419 0.10300818830728531 0.0 0.0 -0.0 10.278596878051758 0.7318810820579529 0.026273518800735474 0.0 0.0 -0.0 2.221662998199463 -0.7334509491920471 -0.20832103490829468 -0.0 0.0 -0.0 -74.55390167236328 38.62541198730469 -9.109715461730957 12.697305679321289 -5.949886322021484 -22.967607498168945 1.126130223274231 28.6621036529541 -4.405971050262451 -0.0 0.0 -0.0 -0.0 0.0 -0.0 -0.0 0.0 -0.0 -7.730902194976807 5.47491455078125 -0.4173222780227661 -0.0 0.0 -0.0 -2.905566453933716 0.9650754332542419 -0.10300818830728531 -0.0 0.0 -0.0 -10.278596878051758 0.7318810820579529 -0.026273518800735474 -0.0 0.0 -0.0 -2.221662998199463 -0.7334509491920471 0.20832103490829468 -0.0 0.0 -0.0 -8.424338340759277 -25.39910888671875 5.934540748596191 -0.24626056849956512 37.20580291748047 1.005450963973999 -2.4138782024383545 -8.842108726501465 -13.048913955688477 0.0 0.0 0.0 7.3756794929504395 -20.425594329833984 -4.150655269622803 0.11674517393112183 34.112300872802734 -0.9305211305618286 1.832901120185852 -9.041881561279297 13.962491989135742
18.589790543774143 70.82570195198059 -13.182000042070285 -1.1303657293319702 3.9854114055633545 6.068806171417236 -4.715354919433594 5.172327995300293 3.3576760292053223 2.3013195991516113 -6.500160217285156 0.9439765810966492 -6.051485061645508 10.442214965820312 -4.035288333892822 7.472433090209961 -20.200199127197266 -6.043039798736572 -0.0 0.0 -0.0 -0.0 0.0 -0.0 -0.0 0.0 -0.0 72.90799713134766 40.78329849243164 -0.12447845190763474 -17.515207290649414 -10.17458438873291 32.941593170166016 -0.0002955301315523684 -0.4941641390323639 -0.06852996349334717 0.0 0.0 -0.0 0.0 0.0 -0.0 0.0 0.0 -0.0 7.730902194976807 5.47491455078125 0.4173222780227661 0.0 0.0 -0.0 2.905566453933716 0.9650754332542419 0.10300818830728531 0.0 0.0 -0.0 10.278596878051758 0.7318810820579529 0.026273518800735474 0.0 0.0 -0.0 2.221662998199463 -0.7334509491920471 -0.20832103490829468 -0.0 0.0 -0.0 -74.59559631347656 38.132606506347656 -9.171567916870117 12.564104080200195 -5.852182388305664 -22.70720863342285 1.1363321542739868 28.952651977539062 -4.455273151397705 -0.0 0.0 -0.0 -0.0 0.0 -0.0 -0.0 0.0 -0.0 -7.730902194976807 5.47491455078125 -0.4173222780227661 -0.0 0.0 -0.0 -2.905566453933716 0.9650754332542419 -0.10300818830728531 -0.0 0.0 -0.0 -10.278596878051758 0.7318810820579529 -0.026273518800735474 -0.0 0.0 -0.0 -2.221662998199463 -0.7334509491920471 0.20832103490829468 -0.0 0.0 -0.0 -8.509566307067871 -25.319997787475586 5.983861923217773 -0.24296346306800842 36.90029525756836 0.9934300184249878 -2.3511033058166504 -8.6753568649292 -12.928304672241211 0.0 0.0 0.0 7.251142978668213 -20.306488037109375 -4.245417594909668 0.1142488569021225 33.90309143066406 -0.9260331392288208 1.8868649005889893 -9.075368881225586 14.18769359588623
18.78570593544282 70.86769938468933 -13.192000041817664 -1.2012110948562622 3.7812135219573975 6.103177070617676 -4.777305603027344 5.050006866455078 3.4861934185028076 2.328528642654419 -6.4955010414123535 0.9831891655921936 -6.040441989898682 10.454182624816895 -4.029811382293701 7.4530348777771 -19.996295928955078 -6.0486979484558105 -0.0 0.0 -0.0 -0.0 0.0 -0.0 -0.0 0.0 0.0 72.79679870605469 41.16219711303711 0.2095491588115692 -17.58570671081543 -10.247992515563965 33.09730911254883 -0.00039119282155297697 -0.5664821863174438 -0.07913226634263992 0.0 0.0 0.0 0.0 0.0 0.0 0.0 0.0 0.0 7.730902194976807 5.47491455078125 0.4173222780227661 0.0 0.0 0.0 2.905566453933716 0.9650754332542419 0.10300818830728531 0.0 0.0 0.0 10.278596878051758 0.7318810820579529 0.026273518800735474 0.0 0.0 0.0 2.221662998199463 -0.7334509491920471 -0.20832103490829468 -0.0 0.0 0.0 -74.67100524902344 37.61379623413086 -9.179906845092773 12.447596549987793 -5.767557144165039 -22.479394912719727 1.162687063217163 29.246564865112305 -4.509477615356445 -0.0 -0.0 -0.0 -0.0 -0.0 -0.0 -0.0 -0.0 -0.0 -7.730902194976807 5.47491455078125 -0.4173222780227661 -0.0 -0.0 -0.0 -2.905566453933716 0.9650754332542419 -0.10300818830728531 -0.0 -0.0 -0.0 -10.278596878051758 0.7318810820579529 -0.026273518800735474 -0.0 -0.0 -0.0 -2.221662998199463 -0.7334509491920471 0.20832103490829468 -0.0 0.0 -0.0 -8.589290618896484 -25.246700286865234 6.071951389312744 -0.23995649814605713 36.584991455078125 0.9818863868713379 -2.290053606033325 -8.529056549072266 -12.79059886932373 0.0 0.0 0.0 7.132658958435059 -20.160511016845703 -4.307344913482666 0.10960184782743454 33.68229675292969 -0.9209819436073303 1.93277907371521 -9.075455665588379 14.41441535949707
18.970841931877658 70.91879844665527 -13.197000041691354 -1.2760801315307617 3.5390353202819824 6.1360063552856445 -4.805552005767822 4.923839092254639 3.6065289974212646 2.3388657569885254 -6.469497203826904 1.0193878412246704 -6.063133239746094 10.430487632751465 -4.045780181884766 7.461091995239258 -19.77549171447754 -6.086208343505859 -0.0 0.0 -0.0 -0.0 0.0 -0.0 0.0 0.0 0.0 72.65839385986328 41.55169677734375 0.5728278160095215 -17.64720344543457 -10.312195777893066 33.23340606689453 -0.0005143422749824822 -0.6501172780990601 -0.09065846353769302 -0.0 0.0 0.0 -0.0 0.0 0.0 -0.0 0.0 0.0 7.730902194976807 5.47491455078125 0.4173222780227661 -0.0 0.0 0.0 2.905566453933716 0.9650754332542419 0.10300818830728531 -0.0 0.0 0.0 10.278596878051758 0.7318810820579529 0.026273518800735474 -0.0 0.0 0.0 2.221662998199463 -0.7334509491920471 -0.20832103490829468 0.0 0.0 0.0 -74.74559783935547 37.16169357299805 -9.148364067077637 12.377801895141602 -5.717196464538574 -22.343700408935547 1.1965149641036987 29.44759750366211 -4.550909519195557 0.0 0.0 -0.0 0.0 0.0 -0.0 0.0 0.0 -0.0 -7.730902194976807 5.47491455078125 -0.4173222780227661 0.0 0.0 -0.0 -2.905566453933716 0.9650754332542419 -0.10300818830728531 0.0 0.0 -0.0 -10.278596878051758 0.7318810820579529 -0.026273518800735474 0.0 0.0 -0.0 -2.221662998199463 -0.7334509491920471 0.20832103490829468 -0.0 0.0 -0.0 -8.636955261230469 -25.155309677124023 6.182197570800781 -0.23360870778560638 36.23899841308594 0.9683268666267395 -2.2294719219207764 -8.373923301696777 -12.657389640808105 0.0 0.0 0.0 7.026294231414795 -20.004804611206055 -4.360918045043945 0.10625730454921722 33.48219299316406 -0.9174940586090088 1.977508783340454 -9.037308692932129 14.679015159606934
19.148143933853135 70.9771990776062 -13.19900004164083 -1.365783452987671 3.2728471755981445 6.16189432144165 -4.800205707550049 4.793799877166748 3.7184064388275146 2.332313060760498 -6.42223596572876 1.0523407459259033 -6.1196489334106445 10.371206283569336 -4.083107948303223 7.496974468231201 -19.537694931030273 -6.155510902404785 -0.0 0.0 -0.0 -0.0 0.0 -0.0 -0.0 -0.0 -0.0 72.4917984008789 41.951507568359375 0.9660459756851196 -17.699600219726562 -10.367379188537598 33.34980392456055 -0.0006801844574511051 -0.744541347026825 -0.10468494892120361 -0.0 0.0 0.0 -0.0 0.0 0.0 -0.0 0.0 0.0 7.730902194976807 5.47491455078125 0.4173222780227661 -0.0 0.0 0.0 2.905566453933716 0.9650754332542419 0.10300818830728531 -0.0 0.0 0.0 10.278596878051758 0.7318810820579529 0.026273518800735474 -0.0 0.0 0.0 2.221662998199463 -0.7334509491920471 -0.20832103490829468 -0.0 -0.0 -0.0 -74.81829071044922 36.776302337646484 -9.077364921569824 12.35527229309082 -5.701406478881836 -22.299890518188477 1.2065224647521973 29.556901931762695 -4.571211338043213 0.0 0.0 -0.0 0.0 0.0 -0.0 0.0 0.0 -0.0 -7.730902194976807 5.47491455078125 -0.4173222780227661 0.0 0.0 -0.0 -2.905566453933716 0.9650754332542419 -0.10300818830728531 0.0 0.0 -0.0 -10.278596878051758 0.7318810820579529 -0.026273518800735474 0.0 0.0 -0.0 -2.221662998199463 -0.7334509491920471 0.20832103490829468 -0.0 0.0 -0.0 -8.65277099609375 -25.045995712280273 6.314456939697266 -0.22837086021900177 35.86240768432617 0.9545800685882568 -2.1690495014190674 -8.210004806518555 -12.528797149658203 0.0 0.0 0.0 6.932011127471924 -19.839597702026367 -4.406213760375977 0.10395415872335434 33.302799224853516 -0.9147619009017944 2.0208001136779785 -8.960939407348633 14.981398582458496
